<?xml version="1.0" encoding="utf-8"?>
<!-- Generator: Adobe Illustrator 16.0.0, SVG Export Plug-In . SVG Version: 6.00 Build 0)  -->
<!DOCTYPE svg PUBLIC "-//W3C//DTD SVG 1.1 Tiny//EN" "http://www.w3.org/Graphics/SVG/1.1/DTD/svg11-tiny.dtd">
<svg version="1.1" baseProfile="tiny" id="Layer_1" xmlns="http://www.w3.org/2000/svg" xmlns:xlink="http://www.w3.org/1999/xlink"
	 x="0px" y="0px" width="90.798px" height="75.785px" viewBox="0 0 90.798 75.785" xml:space="preserve">
<g>
	<path d="M68.453,13.271L26.79,29.991c-6.1,2.449-9.069,4.898-10.116,7.186c0,0-0.342,0.496-0.271,0.744
		c-0.071,0.247,0.271,0.743,0.271,0.743c1.046,2.288,4.016,4.736,10.116,7.186l41.663,16.721c0,0,5.953,2.389,5.953-4.022v-19
		v-3.256v-19C74.406,10.881,68.453,13.271,68.453,13.271z"/>
	<path d="M68.453,13.271L26.79,29.991c-6.1,2.449-9.069,4.898-10.116,7.186c0,0-0.342,0.496-0.271,0.744
		c-0.071,0.247,0.271,0.743,0.271,0.743c1.046,2.288,4.016,4.736,10.116,7.186l41.663,16.721c0,0,5.953,2.389,5.953-4.022v-19
		v-3.256v-19C74.406,10.881,68.453,13.271,68.453,13.271z"/>
</g>
</svg>
