<?xml version="1.0" encoding="utf-8"?>
<!-- Generator: Adobe Illustrator 16.0.0, SVG Export Plug-In . SVG Version: 6.00 Build 0)  -->
<!DOCTYPE svg PUBLIC "-//W3C//DTD SVG 1.1 Tiny//EN" "http://www.w3.org/Graphics/SVG/1.1/DTD/svg11-tiny.dtd">
<svg version="1.1" baseProfile="tiny" id="Layer_1" xmlns="http://www.w3.org/2000/svg" xmlns:xlink="http://www.w3.org/1999/xlink"
	 x="0px" y="0px" width="90.799px" height="75.785px" viewBox="0 0 90.799 75.785" xml:space="preserve">
<g>
	<path d="M22.346,62.57L64.009,45.85c6.1-2.449,9.069-4.898,10.116-7.186c0,0,0.342-0.496,0.271-0.744
		c0.07-0.247-0.271-0.743-0.271-0.743c-1.047-2.288-4.017-4.736-10.116-7.186L22.346,13.271c0,0-5.953-2.389-5.953,4.022v19v3.256
		v19C16.393,64.959,22.346,62.57,22.346,62.57z"/>
	<path d="M22.346,62.57L64.009,45.85c6.1-2.449,9.069-4.898,10.116-7.186c0,0,0.342-0.496,0.271-0.744
		c0.07-0.247-0.271-0.743-0.271-0.743c-1.047-2.288-4.017-4.736-10.116-7.186L22.346,13.271c0,0-5.953-2.389-5.953,4.022v19v3.256
		v19C16.393,64.959,22.346,62.57,22.346,62.57z"/>
</g>
</svg>
