<?xml version="1.0" encoding="utf-8"?>
<!-- Generator: Adobe Illustrator 16.0.0, SVG Export Plug-In . SVG Version: 6.00 Build 0)  -->
<!DOCTYPE svg PUBLIC "-//W3C//DTD SVG 1.1 Tiny//EN" "http://www.w3.org/Graphics/SVG/1.1/DTD/svg11-tiny.dtd">
<svg version="1.1" baseProfile="tiny" id="Layer_1" xmlns="http://www.w3.org/2000/svg" xmlns:xlink="http://www.w3.org/1999/xlink"
	 x="0px" y="0px" width="193.602px" height="170.157px" viewBox="0 0 193.602 170.157" xml:space="preserve">
<g>
	<path d="M133.319,146.959c-19.478,13.211-45.921,15.516-67.527,4.698c-34.395-17.22-50.541-58.824-44.067-93.454
		c6.78-36.27,56.839-54.982,98.634-37.509C231.567,67.185,144.674,139.256,133.319,146.959L133.319,146.959z"/>
</g>
<g>
	<path fill="#FFFFFF" d="M83.266,106.883c0.482-0.612-3.752-17.421,4.476-29.148c5.682-8.103,16.81-15.242,6.405-21.041
		c-4.471-2.541-17.532-0.483-18.743-1.33V36.498c7.739,0.118,12.092-0.246,20.318,0.601c9.435,0.975,13.785,1.939,18.984,6.527
		c8.586,7.621,7.376,18.866,3.993,25.276c-0.363,3.752-9.192,11.492-13.908,20.323c-3.021,5.553-2.417,13.059-2.417,17.045
		C91.488,106.389,92.094,107.119,83.266,106.883z M103.463,132.275c-12.098,9.552-23.584-0.728-21.408-10.28
		c2.3-10.162,10.886-10.89,16.809-8.95C103.703,114.621,108.419,121.995,103.463,132.275z"/>
</g>
</svg>
