<?xml version="1.0" encoding="utf-8"?>
<!-- Generator: Adobe Illustrator 16.0.0, SVG Export Plug-In . SVG Version: 6.00 Build 0)  -->
<!DOCTYPE svg PUBLIC "-//W3C//DTD SVG 1.1 Tiny//EN" "http://www.w3.org/Graphics/SVG/1.1/DTD/svg11-tiny.dtd">
<svg version="1.1" baseProfile="tiny" id="Layer_1" xmlns="http://www.w3.org/2000/svg" xmlns:xlink="http://www.w3.org/1999/xlink"
	 x="0px" y="0px" width="90.799px" height="75.785px" viewBox="0 0 90.799 75.785" xml:space="preserve">
<g>
	<path d="M20.75,14.839l16.721,41.663c2.449,6.1,4.898,9.069,7.186,10.116c0,0,0.496,0.342,0.744,0.271
		c0.247,0.071,0.743-0.271,0.743-0.271c2.288-1.046,4.736-4.016,7.186-10.116l16.721-41.663c0,0,2.389-5.953-4.022-5.953h-19h-3.256
		h-19C18.361,8.886,20.75,14.839,20.75,14.839z"/>
	<path d="M20.75,14.839l16.721,41.663c2.449,6.1,4.898,9.069,7.186,10.116c0,0,0.496,0.342,0.744,0.271
		c0.247,0.071,0.743-0.271,0.743-0.271c2.288-1.046,4.736-4.016,7.186-10.116l16.721-41.663c0,0,2.389-5.953-4.022-5.953h-19h-3.256
		h-19C18.361,8.886,20.75,14.839,20.75,14.839z"/>
</g>
</svg>
