<?xml version="1.0" encoding="utf-8"?>
<!-- Generator: Adobe Illustrator 19.2.1, SVG Export Plug-In . SVG Version: 6.00 Build 0)  -->
<svg version="1.1" id="Layer_1" xmlns="http://www.w3.org/2000/svg" xmlns:xlink="http://www.w3.org/1999/xlink" x="0px" y="0px"
	 viewBox="0 0 73.2 69.7" style="enable-background:new 0 0 73.2 69.7;" xml:space="preserve">
<style type="text/css">
	.st0{fill:#231F20;}
	.st1{fill:#FFFFFF;}
</style>
<g>
	<title>cinekid-logo</title>
	<g>
		<path class="st0" d="M17.4,49.9c0.8,0,1,0.8,1,1.2c0,0.4-0.2,1.2-1,1.2h-4.3c-0.7,0-1-0.8-1-1.2c0-0.4,0.2-1.2,1-1.2h0.5v-6.5
			h-0.5c-0.7,0-1-0.8-1-1.2c0-0.4,0.2-1.2,1-1.2h4.3c0.8,0,1,0.8,1,1.2c0,0.4-0.2,1.2-1,1.2h-0.5v6.5H17.4L17.4,49.9z"/>
		<path class="st0" d="M23.4,49.9c0.8,0,1,0.8,1,1.2c0,0.4-0.2,1.2-1,1.2h-3.6c-0.7,0-1-0.8-1-1.2c0-0.4,0.2-1.2,1-1.2h0.4v-6.5
			h-0.5c-0.7,0-1-0.8-1-1.2c0-0.4,0.2-1.2,1-1.2h3.9l3.2,6c0.1,0.2,0.3,0.7,0.3,1.1v-4.7h-0.7c-0.8,0-1-0.8-1-1.2
			c0-0.4,0.2-1.2,1-1.2H30c0.7,0,1,0.8,1,1.2c0,0.4-0.2,1.2-1,1.2h-0.3v7.5c0,1.2-1,1.6-1.9,1.6c-1.1,0-1.7-0.4-2.3-1.4L23,46.2
			c-0.1-0.2-0.2-0.6-0.3-1v4.7H23.4L23.4,49.9z"/>
		<path class="st0" d="M38.4,49.9l0.1-0.9c0.1-0.6,0.7-0.9,1.4-0.9c0.8,0,1.6,0.4,1.6,1.2l-0.4,3h-8.9c-0.7,0-1-0.8-1-1.2
			c0-0.4,0.2-1.2,1-1.2h0.5v-6.5h-0.5c-0.7,0-1-0.8-1-1.2c0-0.4,0.2-1.2,1-1.2h8.4c0,0,0.1,2.9,0.1,2.9c0,0.6-0.7,0.9-1.4,0.9
			c-0.6,0-1.3-0.2-1.4-0.9l0-0.6h-1.9v2H38c0.7,0,0.9,0.8,0.9,1.2c0,0.4-0.2,1.2-0.9,1.2h-1.9v2.1H38.4L38.4,49.9z"/>
		<path class="st0" d="M59.2,49.9c0.8,0,1,0.8,1,1.2c0,0.4-0.2,1.2-1,1.2h-4.3c-0.7,0-1-0.8-1-1.2c0-0.4,0.2-1.2,1-1.2h0.5v-6.5
			h-0.5c-0.7,0-1-0.8-1-1.2c0-0.4,0.2-1.2,1-1.2h4.3c0.8,0,1,0.8,1,1.2c0,0.4-0.2,1.2-1,1.2h-0.5v6.5H59.2L59.2,49.9z"/>
		<path class="st0" d="M65.5,43.5h-0.3v6.3H66c1.7,0,2.7-1,2.7-3.2C68.7,44.4,67.4,43.5,65.5,43.5 M65.7,52.3h-4.3
			c-0.7,0-1-0.8-1-1.2c0-0.4,0.2-1.2,1-1.2h0.5v-6.5h-0.5c-0.7,0-1-0.8-1-1.2c0-0.4-0.1-1.2,1-1.2h4.2c3.5,0,6.5,1.1,6.5,5.3
			C72.2,51,69.3,52.3,65.7,52.3"/>
		<path class="st0" d="M54.4,52.5c-0.3,0-0.4,0-0.5,0c-0.2,0-0.4-0.1-0.7-0.5c-0.3-0.4-1.2-1.9-1.5-2.5c-0.3-0.4-0.9-1.5-1.2-2.1
			c-0.2-0.4-0.5-0.6-0.7-0.7l2.6-3.2h0.2c0.8,0,1-0.8,1-1.2c0-0.4-0.2-1.2-1-1.2h-4c-0.7,0-1,0.8-1,1.2c0,0.4,0.2,1.2,1,1.2h0.1
			L47,45.8h-0.6v-2.4h0.2c0.8,0,1-0.8,1-1.2c0-0.4-0.2-1.2-1-1.2h-4c-0.7,0-1,0.8-1,1.2c0,0.4,0.2,1.2,1,1.2H43v6.5h-0.5
			c-0.7,0-1,0.8-1,1.2c0,0.4,0.2,1.2,1,1.2h4.1c0.8,0,1-0.8,1-1.2c0-0.4-0.2-1.2-1-1.2h-0.2v-1.6h0.2c0.4,0,0.7,0.1,1,0.7
			c0.4,0.8,0.9,1.6,1.3,2.3c0.4,0.8,1,1.7,1.5,2.5c0.5,0.8,1.4,1.3,2.6,1.3c1.6,0,2.3-0.8,2.3-1.7C55.3,53,54.9,52.5,54.4,52.5"/>
		<path class="st0" d="M10.6,40.3c0.6,0,1.3,0.3,1.3,1.2c0,0.6-0.3,1.1-0.5,1.8v1.5c0,0.7-0.5,1.2-1.5,1.2c-1,0-1.4-0.4-1.4-1.2
			c0-0.5-0.2-1.2-1.2-1.2c-1.1,0-1.9,0.8-1.9,3.1c0,2.4,0.9,3.2,2.2,3.2c0.9,0,1.6-0.5,2.1-0.7c0.5-0.3,0.8-0.3,1.1-0.3
			c0.5,0,1.1,0.4,1.1,1.2c0,0.7-0.4,1.2-0.9,1.5c-0.7,0.5-1.8,1.1-3.8,1.1c-2.9,0-5.4-1.5-5.4-5.7c0-4.2,2.4-6,5.4-6
			c1,0,1.5,0.3,1.9,0.6C9.4,40.7,9.8,40.3,10.6,40.3"/>
		<polygon class="st1" points="24.5,9.2 30,7.2 32.6,8.1 36.3,4.6 36.7,7.5 37.7,9.1 39.9,7.2 43.5,6.5 47.8,7.7 46.5,9.8 50.3,13 
			46.6,14.7 49.4,17.4 50.8,21.6 48.1,21.1 49,23.5 51.3,25.4 49.1,26.7 45.7,27.2 45.7,31.8 44.8,31.3 42.1,33.6 40.7,30.4 
			38.7,32 38.1,35.5 34.9,33.7 32.2,35.3 31.6,33 29.2,31 26.2,30.7 27,28.9 27.1,27.8 24.8,28.1 24.2,27.6 24.7,25 26.1,23.4 
			26.3,21.6 24,22.4 24,20.2 25.4,17.3 22.7,17 23.9,14.3 27.6,11.9 24.5,9.2 		"/>
		<path class="st0" d="M52.1,24.9l-1.2-0.6c-0.4-0.2-0.8-0.5-1.2-0.8c-0.3-0.3-0.6-0.7-0.9-1.1c-0.2-0.4-0.4-0.7-0.5-1.1
			c0.3,0.1,0.6,0.2,0.9,0.4l1.3,0.8l0.9,0.5l0-1l-0.1-1.5c-0.1-2.6-1.7-4.8-4-5.8c0.1-0.1,0.3-0.2,0.5-0.2c0.1,0,0.1-0.1,0.2-0.1
			c0.4-0.2,0.9-0.3,1.3-0.4l1.5-0.2l1-0.2l-0.7-0.8l-1-1.1c-0.8-0.9-1.8-1.6-2.8-2c0.1-0.1,0.3-0.1,0.4-0.2L49,8.7L50,8.3l-0.9-0.6
			l-1.3-0.8C46,5.8,44,5.5,42,5.9c-1.3,0.3-2.5,0.9-3.6,1.7C38.2,7.8,38,8,37.7,8.2c-0.2-0.4-0.3-0.8-0.4-1.2
			c-0.1-0.5-0.1-1-0.1-1.4l0.1-1.5l0.1-1l-0.9,0.5l-1.4,0.7c-1.4,0.7-2.4,1.8-3.2,3.1c-1.3-0.6-2.7-0.8-4.2-0.5
			c-1.2,0.2-2.3,0.7-3.3,1.4l-1.2,0.9l-0.8,0.6l1,0.4l1.4,0.5c0.4,0.2,0.8,0.4,1.2,0.6c0.2,0.2,0.4,0.3,0.6,0.5
			c-2.1,0.7-3.9,2.3-4.7,4.4l-0.5,1.3l-0.3,0.9l0.9-0.2l1.3-0.3c0.4-0.1,0.8-0.1,1.2-0.1c-0.8,0.9-1.4,2.1-1.5,3.4l-0.2,1.5l-0.1,1
			l0.9-0.4l1.4-0.7c0.3-0.1,0.6-0.3,1-0.3c-1.4,1.3-2.3,3-2.5,5l-0.1,1.4l-0.1,0.9l0.8-0.4l1.2-0.6c0.4-0.2,0.8-0.4,1.2-0.5
			c0,0.2-0.1,0.4-0.2,0.5c-0.2,0.5-0.4,0.9-0.7,1.3l-0.8,1.1l-0.5,0.7l0.9,0l1.4,0.1c0.8,0,1.6,0,2.3-0.2c-0.2-0.4-0.3-0.8-0.4-1.2
			c-0.6,0.2-1.2,0.2-1.9,0.2c0.3-0.5,0.6-1,0.8-1.6c0.3-0.8,0.4-1.6,0.4-2.3c-0.5,0-1,0-1.5,0.1c-0.6,0.1-1.2,0.3-1.7,0.6
			c0.2-1.9,1.3-3.7,2.9-4.8c0.3-0.4,0.8-0.8,1.3-1.2c-0.7-0.6-1.9-0.7-3.1-0.4c-0.5,0.1-1,0.3-1.4,0.5c0.2-1.8,1.4-3.5,3.1-4.2
			c-0.8-0.4-1.6-0.7-2.5-0.7c-0.6,0-1.2,0-1.8,0.1c0.9-2.3,3.2-4,5.8-4c-0.4-1-1.1-1.8-2-2.5c-0.5-0.4-1-0.6-1.5-0.8
			c2.1-1.5,5.1-1.6,7.3,0c0.5-1.6,1.6-3,3.2-3.8c-0.1,0.6,0,1.2,0.1,1.8c0.2,1.3,0.9,2.4,1.7,3.3c0.4-0.7,0.9-1.4,1.6-2
			c2.2-1.9,5.4-2,7.7-0.5c-0.5,0.2-1.1,0.6-1.5,1c-0.4,0.4-0.8,0.8-1.1,1.2c1.7,0.1,3.4,0.9,4.6,2.3c-0.6,0.1-1.3,0.3-1.9,0.6
			c-1.2,0.5-2.1,1.4-2.8,2.3c0.6,0,1.1,0,1.7,0.2c2.3,0.6,3.8,2.6,3.8,4.9c-0.4-0.2-0.9-0.4-1.3-0.6c-0.6-0.2-1.2-0.2-1.7-0.2
			c0,1.7,0.7,3.4,2,4.6c0.4,0.4,0.9,0.8,1.5,1c-1.8,1-4,1.1-5.9,0.2c0.8,1.4,1.2,3,0.9,4.6c-0.2-0.2-0.5-0.5-0.8-0.7
			c-0.3,1.3-1,2.5-2.1,3.4c-0.1-0.6-0.2-1.2-0.5-1.7c-0.3-0.7-0.7-1.4-1.3-1.9c-1.4,0.8-2.5,2.1-2.9,3.7c-0.2,0.6-0.3,1.2-0.3,1.8
			c-0.9-0.6-1.6-1.4-2.1-2.4c-0.6,1-1.6,1.8-2.7,2.3c0-0.3,0.1-0.6,0.1-0.9c-0.2,0-0.4,0-0.5,0c-0.2,0-0.5,0-0.7-0.1h0l0,0
			c0,0.3,0,0.6-0.1,0.8L31.3,36l-0.1,0.9l0.8-0.4l1.2-0.6c0.8-0.4,1.4-0.8,2-1.4c0.4,0.5,1,1,1.5,1.4l1.1,0.8l0.8,0.5l0-0.9l0-1.4
			c0-0.5,0.1-1,0.2-1.4c0.1-0.5,0.3-0.9,0.6-1.3c0.3-0.4,0.6-0.8,0.9-1.1c0.1,0.2,0.3,0.5,0.4,0.7c0.2,0.4,0.3,0.9,0.4,1.4l0.2,1.3
			l0.1,0.9l0.7-0.6l1-0.9c0.8-0.7,1.4-1.4,1.8-2.3l0.4,0.4l0.7,0.6l0.2-0.9l0.3-1.3c0.2-1,0.2-2.1,0-3c1.5,0.1,3-0.2,4.4-1l1.2-0.7
			l0.8-0.5L52.1,24.9L52.1,24.9z"/>
		<path class="st0" d="M42,25.3c-0.4-0.3-0.9-0.5-1.4-0.6c-0.4,0-0.7,0-0.7,0.1l-0.2,0.1l0.2,0.8c0.1,0.5,0.1,1.1,0,1.6
			c-0.4,1.4-1.8,2.4-3.3,2.2c-0.2,0-0.3-0.1-0.5-0.1c-1.3-0.4-2.2-1.5-2.2-2.8l-0.1-1.4l-1,0.9c-0.6,0.5-1.3,0.7-2.1,0.7
			c-0.2,0-0.3,0-0.5-0.1c-1.4-0.4-2.2-1.9-1.8-3.3c0.1-0.4,0.4-0.9,0.7-1.2c0.1-0.1,0.1-0.2,0.1-0.3c-0.1-0.2-0.4-0.5-0.7-0.6
			c-0.2,0-0.3,0.1-0.4,0.2c-0.3,0.5-0.7,1-0.9,1.5c-0.6,2.1,0.6,4.4,2.8,5c0.2,0.1,0.5,0.1,0.7,0.1c0.7,0.1,1.5-0.1,2.2-0.4
			c0.4,1.4,1.6,2.5,3,2.9c0.2,0.1,0.5,0.1,0.8,0.1c2.1,0.2,4.1-1.1,4.7-3.2c0.1-0.4,0.2-0.8,0.2-1.2c0.3,0.1,0.6,0.4,1,1l0.3,0.4
			l0.2-0.4C42.8,27.2,43.2,26.2,42,25.3L42,25.3z"/>
		<path class="st0" d="M33.1,26.4c-1.1-0.2-2.5-2.5-2.4-3.3c0.1-0.8,0.6-1.7,3.1-1.2c2.5,0.4,2.8,1.1,2.6,2.2
			C36.3,25.1,34.2,26.5,33.1,26.4L33.1,26.4z"/>
		<path class="st0" d="M42.4,19.2c0-0.5-0.2-1-0.5-1.5c-0.6-1-1.7-1.6-2.9-1.6c-0.5,0-1,0.2-1.5,0.5c-1,0.6-1.6,1.7-1.6,2.9
			c0,0.5,0.2,1,0.5,1.5c0.6,1,1.8,1.6,2.9,1.6c0.5,0,1-0.2,1.5-0.5l-0.2-0.4l0.2,0.4C41.9,21.4,42.5,20.3,42.4,19.2L42.4,19.2z
			 M40.4,21.3c-0.3,0.2-0.7,0.3-1.1,0.3c-0.8,0-1.6-0.4-2.1-1.1c-0.2-0.3-0.3-0.7-0.3-1.1c0-0.8,0.4-1.6,1.1-2.1
			c0.3-0.2,0.7-0.3,1.1-0.3c0.8,0,1.6,0.4,2.1,1.1c0.2,0.3,0.3,0.7,0.3,1.1C41.6,20,41.2,20.8,40.4,21.3L40.4,21.3z"/>
		<path class="st0" d="M40.7,19.2c0,0,0-0.1,0-0.1c-0.1,0.2-0.4,0.4-0.7,0.3c-0.4,0-0.7-0.4-0.6-0.8c0-0.3,0.2-0.5,0.5-0.6
			c-0.2-0.1-0.5-0.2-0.8-0.1c-0.8,0.1-1.4,0.9-1.3,1.7c0.1,0.8,0.9,1.4,1.7,1.3C40.3,20.7,40.8,20,40.7,19.2L40.7,19.2z"/>
		<polygon class="st0" points="30.8,16.9 31,14.6 32.2,16.6 34.6,16.1 33,17.8 34.2,19.8 32,18.8 30.4,20.5 30.6,18.3 28.5,17.3 
			30.8,16.9 		"/>
		<path class="st0" d="M33.4,27.4c0-0.1-0.1-0.2-0.1-0.3c-0.3,0.2-0.6,0.4-1,0.5c-1.6,2.3-0.4,3.6-0.4,3.6S31.5,29.4,33.4,27.4
			C33.3,27.5,33.4,27.4,33.4,27.4L33.4,27.4z"/>
		<path class="st0" d="M34.5,28.7c-0.3,0.5-0.5,1-0.6,1.5c0,0.1,0,0.2-0.1,0.3c0,0.1,0,0.2-0.1,0.3c-0.1,0.6-0.3,1-0.6,1.3
			c-0.2,0.3-0.4,0.4-0.8,0.4c-0.1,0-0.3,0-0.4-0.1c-1.2-0.3-2.2-1.5-2.1-2.9c0-0.2,0.1-0.5,0.1-0.7c0.1-0.4,0.3-0.8,0.5-1.2
			c-0.4-0.1-0.9-0.4-1.2-0.7c-0.3,0.5-0.5,1-0.6,1.6c-0.1,0.3-0.1,0.6-0.2,0.9c-0.2,2.3,1.5,3.9,3.2,4.3l0,0h0
			c0.2,0.1,0.5,0.1,0.7,0.1c0.7,0,1.4-0.3,1.9-0.8c0.4-0.4,0.6-1,0.8-1.8c0-0.1,0.2-0.5,0.2-0.6c0-0.1,0.3-0.7,0.3-0.8
			c0.1-0.2,0.1-0.3,0.1-0.4C35.2,29.2,34.8,29,34.5,28.7L34.5,28.7z"/>
	</g>
	<g>
		<path class="st0" d="M5.1,58.5c0,0.6,0.3,0.9,1,0.9c0.6,0,1-0.3,1-0.9v-3.3H6.9c-0.5,0-0.6-0.5-0.6-0.8c0-0.2,0.1-0.8,0.6-0.8h2.4
			c0.5,0,0.6,0.5,0.6,0.8c0,0.2-0.1,0.8-0.6,0.8H9.2v3.2c0,1.9-1.2,2.8-3.2,2.8c-1.9,0-3.2-0.7-3.2-2.5v-3.5H2.8
			c-0.5,0-0.6-0.5-0.6-0.8c0-0.2,0.1-0.8,0.6-0.8h2.5c0.5,0,0.6,0.5,0.6,0.8c0,0.2-0.1,0.8-0.6,0.8H5.1V58.5z"/>
		<path class="st0" d="M13.5,59.5c0.5,0,0.6,0.5,0.6,0.8c0,0.2-0.1,0.8-0.6,0.8h-2.3c-0.5,0-0.6-0.5-0.6-0.8c0-0.2,0.1-0.8,0.6-0.8
			h0.2v-4.3h-0.3c-0.5,0-0.6-0.5-0.6-0.8c0-0.2,0.1-0.8,0.6-0.8h2.6l2.1,3.9c0.1,0.1,0.2,0.5,0.2,0.7v-3.1h-0.4
			c-0.5,0-0.6-0.5-0.6-0.8c0-0.2,0.1-0.8,0.6-0.8h2.3c0.5,0,0.6,0.5,0.6,0.8c0,0.2-0.1,0.8-0.6,0.8h-0.2v4.9c0,0.8-0.7,1-1.2,1
			c-0.7,0-1.1-0.2-1.5-0.9L13.3,57c-0.1-0.2-0.2-0.4-0.2-0.7v3.1H13.5z"/>
		<path class="st0" d="M22.5,59.5c0.5,0,0.6,0.5,0.6,0.8c0,0.2-0.1,0.8-0.6,0.8h-3.2c-0.5,0-0.6-0.5-0.6-0.8c0-0.2,0.1-0.8,0.6-0.8
			h0.3v-4.3h-0.3c-0.5,0-0.6-0.5-0.6-0.8c0-0.2,0.1-0.8,0.6-0.8h5.5c0,0,0.1,1.9,0.1,1.9c0,0.4-0.5,0.6-0.9,0.6
			c-0.4,0-0.9-0.2-0.9-0.6l0-0.4h-1.3v1.4h1.3c0.5,0,0.6,0.5,0.6,0.8c0,0.2-0.1,0.8-0.6,0.8h-1.3v1.3H22.5z"/>
		<path class="st0" d="M28.8,61.2c-2.5,0-3.5-1.4-3.5-3.7c0-2.4,1.4-4,3.7-4c2.5,0,3.5,1.4,3.5,3.7C32.5,59.7,31.1,61.2,28.8,61.2z
			 M28.9,55.3c-0.9,0-1.4,0.6-1.4,2.1c0,1.5,0.5,2.1,1.3,2.1c0.9,0,1.4-0.6,1.4-2.1C30.2,55.8,29.7,55.3,28.9,55.3z"/>
		<path class="st0" d="M37.6,59.4l0.1-0.6c0.1-0.4,0.5-0.6,0.9-0.6c0.5,0,1,0.3,1,0.8l-0.3,2h-5.9c-0.5,0-0.6-0.5-0.6-0.8
			c0-0.2,0.1-0.8,0.6-0.8h0.3v-4.3h-0.3c-0.5,0-0.6-0.5-0.6-0.8c0-0.2,0.1-0.8,0.6-0.8h3.2c0.5,0,0.6,0.5,0.6,0.8
			c0,0.2-0.1,0.8-0.6,0.8H36v4.2H37.6z"/>
		<path class="st0" d="M43.3,61h-2.8c-0.5,0-0.6-0.5-0.6-0.8c0-0.2,0.1-0.8,0.6-0.8h0.3v-4.3h-0.3c-0.5,0-0.6-0.5-0.6-0.8
			c0-0.2,0.1-0.8,0.6-0.8h2.8c2.3,0,4.3,0.7,4.3,3.5C47.6,60.2,45.7,61,43.3,61z M43.2,55.3h-0.2v4.1h0.5c1.1,0,1.8-0.6,1.8-2.1
			C45.3,55.9,44.5,55.3,43.2,55.3z"/>
	</g>
</g>
</svg>
